<?xml version="1.0" encoding="UTF-8"?>
<svg width="414px" height="120px" viewBox="0 0 414 120" version="1.1" xmlns="http://www.w3.org/2000/svg" xmlns:xlink="http://www.w3.org/1999/xlink">
    <!-- Generator: Sketch 63.1 (92452) - https://sketch.com -->
    <title>logo</title>
    <desc>Created with Sketch.</desc>
    <defs>
        <radialGradient cx="50%" cy="0%" fx="50%" fy="0%" r="100%" gradientTransform="translate(0.500000,0.000000),scale(0.971429,1.000000),rotate(90.000000),translate(-0.500000,-0.000000)" id="radialGradient-1">
            <stop stop-color="#00DCEF" offset="0%"></stop>
            <stop stop-color="#2C7EF3" offset="100%"></stop>
        </radialGradient>
    </defs>
    <g id="logo" stroke="none" stroke-width="1" fill="none" fill-rule="evenodd">
        <text id="Kiraz" font-family="Lato-Bold, Lato" font-size="90" font-weight="bold" letter-spacing="2" fill="#2E3E5D">
            <tspan x="152" y="96">Kiraz</tspan>
        </text>
        <path d="M33,10 C51.6073694,15.6158005 61.8287637,22.9449436 63.6641828,31.9874295 C65.3395649,40.2414672 60.7461233,53.4628881 49.883858,71.6516921 C54.2729664,75.9218077 57,81.8924374 57,88.5 C57,101.478692 46.4786916,112 33.5,112 C20.5213084,112 10,101.478692 10,88.5 C10,75.5213084 20.5213084,65 33.5,65 C39.5473948,65 45.0612733,67.2842549 49.2258824,71.0370117 L62.3279407,41.2901354 C54.35505,40.7327525 47.6019503,37.6318505 42.0686416,31.9874295 C36.535333,26.3430084 33.5124524,19.0138653 33,10 Z M95,10 C94.4875476,19.0138653 91.464667,26.3430084 85.9313584,31.9874295 C80.3980497,37.6318505 73.64495,40.7327525 65.6720593,41.2901354 L77.9941786,69.2662849 C81.8151622,66.578262 86.4732697,65 91.5,65 C104.478692,65 115,75.5213084 115,88.5 C115,101.478692 104.478692,112 91.5,112 C78.5213084,112 68,101.478692 68,88.5 C68,80.947939 71.562369,74.2279139 77.0983765,69.928655 C66.9676511,52.6257744 62.7137927,39.9785925 64.3358172,31.9874295 C66.1712363,22.9449436 76.3926306,15.6158005 95,10 Z" id="Combined-Shape" stroke="url(#radialGradient-1)" stroke-width="10"></path>
    </g>
</svg>